<?xml version="1.0" standalone="no"?>
<!DOCTYPE svg PUBLIC "-//W3C//DTD SVG 20010904//EN"
 "http://www.w3.org/TR/2001/REC-SVG-20010904/DTD/svg10.dtd">
<svg version="1.0" xmlns="http://www.w3.org/2000/svg"
 width="2560.000000pt" height="440.000000pt" viewBox="0 0 2560.000000 440.000000"
 preserveAspectRatio="xMidYMid meet">

<g transform="translate(0.000000,440.000000) scale(0.100000,-0.100000)"
fill="#000000" stroke="none">
<path d="M1505 4388 c-13 -36 -1495 -4362 -1495 -4365 0 -1 49 -3 109 -3 l109
0 209 627 210 628 990 3 991 2 209 -627 210 -628 118 -3 c106 -2 117 -1 111
14 -4 9 -339 987 -745 2173 -407 1186 -743 2164 -746 2174 -6 15 -23 17 -141
17 -99 0 -136 -3 -139 -12z m1045 -2895 c0 -10 -189 -13 -915 -13 -503 0 -915
1 -915 3 0 4 909 2708 916 2727 6 14 914 -2688 914 -2717z"/>
<path d="M6960 2210 l0 -2190 110 0 110 0 0 1055 0 1055 790 0 790 0 0 100 0
100 -790 0 -790 0 0 935 0 935 917 2 918 3 12 80 c6 44 12 88 12 98 1 16 -55
17 -1039 17 l-1040 0 0 -2190z"/>
<path d="M10320 2210 l0 -2190 110 0 110 0 0 1020 0 1020 512 -2 512 -3 588
-1015 589 -1015 140 -3 141 -3 -20 33 c-59 97 -1184 2020 -1188 2033 -4 8 0
17 7 19 8 2 57 16 109 31 281 78 520 228 662 415 154 202 228 509 200 823 -58
636 -461 961 -1262 1017 -80 5 -385 10 -677 10 l-533 0 0 -2190z m1420 1961
c272 -50 450 -131 591 -271 71 -71 93 -101 132 -180 75 -154 92 -237 92 -475
0 -174 -3 -212 -23 -288 -92 -365 -347 -580 -785 -662 -146 -27 -314 -35 -764
-35 l-443 0 0 971 0 971 538 -4 c505 -4 544 -6 662 -27z"/>
<path d="M14536 2303 c-396 -1154 -734 -2140 -752 -2191 l-32 -93 110 3 110 3
212 627 211 628 989 -3 988 -2 211 -627 211 -628 113 0 c62 0 113 3 113 8 0 4
-336 989 -747 2189 l-748 2183 -135 0 -136 0 -718 -2097z m1309 552 c250 -747
455 -1362 455 -1367 0 -10 -1830 -11 -1830 0 -1 12 913 2732 916 2729 2 -2
208 -614 459 -1362z"/>
<path d="M18439 4398 c-1 -2 -103 -987 -228 -2191 l-227 -2187 108 0 c84 0
108 3 108 14 0 29 223 2290 275 2786 65 621 99 961 120 1199 9 96 17 176 18
178 2 1 282 -818 624 -1820 l620 -1822 106 -3 105 -3 608 1823 c502 1507 609
1818 615 1793 4 -16 22 -185 39 -375 45 -502 374 -3609 396 -3737 l5 -33 106
0 106 0 -6 48 c-4 26 -106 1001 -227 2167 -122 1166 -223 2130 -226 2143 -4
22 -5 22 -172 20 l-167 -3 -585 -1782 c-322 -980 -587 -1784 -590 -1786 -3 -3
-275 800 -604 1784 l-600 1789 -163 0 c-90 0 -163 -1 -164 -2z"/>
<path d="M23390 2210 l0 -2190 1075 0 1075 0 0 100 0 100 -967 2 -968 3 -3
997 -2 998 810 0 810 0 0 100 0 100 -810 0 -810 0 2 888 3 887 932 3 931 2 12
73 c6 39 13 84 16 100 l6 27 -1056 0 -1056 0 0 -2190z"/>
<path d="M3980 2030 l0 -100 805 0 805 0 0 100 0 100 -805 0 -805 0 0 -100z"/>
</g>
</svg>
